<svg id="Group_4923" data-name="Group 4923" xmlns="http://www.w3.org/2000/svg" width="91.2" height="92.526" viewBox="0 0 91.2 92.526">
  <path id="Path_1690" data-name="Path 1690" d="M371.213,377.526H289.987c-.117-.3-.358-.149-.556-.157a5.517,5.517,0,0,1-4.271-4.34c-.015-.2.149-.451-.161-.563V328.733a9.4,9.4,0,0,1,.742-.979c2.091-2.135,4.2-4.256,6.3-6.384.207-.21.4-.435.584-.634v-5.92c0-4.064.027-8.128-.01-12.192a9.761,9.761,0,0,1,2.218-6.469c.467-.572,1.037-1.057,1.561-1.584a9.621,9.621,0,0,1,7.835-9.412c.367-.011.754.121,1.082-.161h50.588c.328.282.715.149,1.081.161a8.96,8.96,0,0,1,4.625,2.276,9.6,9.6,0,0,1,3.2,7.408c-.01,3.492,0,6.984,0,10.476v.872c.283.244.542.443.774.671a9.321,9.321,0,0,1,2.986,6.688c.034,2.376.007,4.753.007,7.149.16.185.305.373.471.541,2.054,2.088,4.117,4.168,6.163,6.264.366.375.668.815,1,1.226v43.733c-.309.112-.146.364-.16.562a5.564,5.564,0,0,1-4.273,4.334C371.571,377.378,371.323,377.213,371.213,377.526Zm1.241-46.212H288.746v1.033q0,18.745,0,37.491a7.907,7.907,0,0,0,.23,2.72l.792.882a8.736,8.736,0,0,0,3.216.28q37.933.008,75.866,0a6.274,6.274,0,0,0,2.53-.269l.807-.77a8.576,8.576,0,0,0,.263-2.95q0-18.745,0-37.491Zm-7.654-3.891v-.871c0-4.066.006-8.131-.007-12.2a8.616,8.616,0,0,0-.165-1.687,5.336,5.336,0,0,0-2.064-3.326,5.971,5.971,0,0,0-3.7-1.215q-14.026.015-28.052,0a10.346,10.346,0,0,1-2.55-.221,9.38,9.38,0,0,1-5.7-3.947,14.533,14.533,0,0,1-1.565-3.48,5.437,5.437,0,0,0-1.512-2.385,5.951,5.951,0,0,0-4.126-1.532c-4.274.026-8.549,0-12.824.016a8.286,8.286,0,0,0-1.663.168,5.24,5.24,0,0,0-3.279,2.094,6.054,6.054,0,0,0-1.2,3.666q.009,12.152,0,24.3c0,.2.022.4.035.618Zm-3.761-22.977v-.939c0-2.679.009-5.358-.007-8.037a14.23,14.23,0,0,0-.144-1.779,5.419,5.419,0,0,0-2.369-3.818,6.1,6.1,0,0,0-3.661-1.055q-24.256,0-48.513,0a11.037,11.037,0,0,0-1.309.138,5.5,5.5,0,0,0-4.1,2.8,1.068,1.068,0,0,0-.235.99c.105.01.189.026.273.026,4.925-.007,9.851-.022,14.776-.013a8.643,8.643,0,0,1,1.925.2,9.244,9.244,0,0,1,6.484,5.178,22.13,22.13,0,0,1,.9,2.407,5.325,5.325,0,0,0,1.927,2.6,5.989,5.989,0,0,0,3.626,1.168q10.86.01,21.72,0,3.694,0,7.388.016C360.133,304.335,360.54,304.4,361.039,304.446Zm-69.407,22.882c.324.048.669.243.957.047v-1.061Zm76.955-.979a2.234,2.234,0,0,0,.045,1.052H369.7Z" transform="translate(-285 -285)" fill="#010100"/>
  <path id="Path_1691" data-name="Path 1691" d="M392.928,285.161a.287.287,0,0,0,.013-.161h1.069C393.682,285.282,393.295,285.149,392.928,285.161Z" transform="translate(-373.703 -285)" fill="#a4976f"/>
  <path id="Path_1692" data-name="Path 1692" d="M684.069,285a.285.285,0,0,0,.013.161c-.367-.011-.754.121-1.081-.161Z" transform="translate(-612.106 -285)" fill="#a4976f"/>
  <path id="Path_1693" data-name="Path 1693" d="M285.16,769.563a.323.323,0,0,0-.161-.021V769C285.31,769.112,285.145,769.364,285.16,769.563Z" transform="translate(-285 -681.534)" fill="#575c5f"/>
  <path id="Path_1694" data-name="Path 1694" d="M796.121,769.542h-.082l-.079.021c.015-.2-.148-.45.16-.562Z" transform="translate(-704.921 -681.534)" fill="#595e60"/>
  <path id="Path_1695" data-name="Path 1695" d="M309.9,796.148a.367.367,0,0,0-.021-.157c.2.008.438-.143.556.157Z" transform="translate(-305.448 -703.622)" fill="#6d7274"/>
  <path id="Path_1696" data-name="Path 1696" d="M769.554,795.961a.257.257,0,0,0-.02.163H769C769.111,795.811,769.358,795.976,769.554,795.961Z" transform="translate(-682.787 -703.598)" fill="#585e60"/>
  <path id="Path_1697" data-name="Path 1697" d="M389.7,541.285v.93q0,18.745,0,37.491a8.577,8.577,0,0,1-.263,2.95l-.807.77a6.274,6.274,0,0,1-2.53.269q-37.933,0-75.866,0a8.738,8.738,0,0,1-3.216-.28l-.792-.882a7.907,7.907,0,0,1-.23-2.72q0-18.745,0-37.491v-1.033ZM347.8,560.392h0c4.036,0,8.072-.007,12.108.006a5.55,5.55,0,0,0,2.426-.579A7.933,7.933,0,0,0,365,557.745,8.345,8.345,0,0,0,366.526,555a8.992,8.992,0,0,0,.2-2.747,6.155,6.155,0,0,0-.636-2.713,7.545,7.545,0,0,0-2.421-2.962,6.625,6.625,0,0,0-4.038-1.382q-11.885.034-23.771,0a5.907,5.907,0,0,0-2.591.624,7.972,7.972,0,0,0-2.646,2.1,8.059,8.059,0,0,0-1.468,2.676,9.033,9.033,0,0,0-.2,2.747,6.152,6.152,0,0,0,.635,2.713,7.552,7.552,0,0,0,2.421,2.962,6.575,6.575,0,0,0,4.039,1.383C339.968,560.371,343.886,560.392,347.8,560.392Z" transform="translate(-302.244 -494.97)" fill="#445963"/>
  <path id="Path_1698" data-name="Path 1698" d="M417.386,379.816H349.023c-.013-.217-.035-.418-.035-.618q0-12.152,0-24.3a6.054,6.054,0,0,1,1.2-3.666,5.24,5.24,0,0,1,3.279-2.094,8.283,8.283,0,0,1,1.663-.168c4.275-.013,8.549.01,12.824-.016a5.95,5.95,0,0,1,4.126,1.532,5.438,5.438,0,0,1,1.512,2.385,14.533,14.533,0,0,0,1.565,3.48,9.38,9.38,0,0,0,5.7,3.947,10.345,10.345,0,0,0,2.55.221q14.026.022,28.052,0a5.972,5.972,0,0,1,3.7,1.215,5.336,5.336,0,0,1,2.064,3.326,8.615,8.615,0,0,1,.165,1.687c.014,4.065.007,8.131.007,12.2Z" transform="translate(-337.586 -337.393)" fill="#bc1a20"/>
  <path id="Path_1699" data-name="Path 1699" d="M433.263,321.746c-.5-.045-.906-.111-1.313-.114q-3.694-.02-7.388-.016-10.86,0-21.72,0a5.989,5.989,0,0,1-3.626-1.168,5.325,5.325,0,0,1-1.927-2.6,22.142,22.142,0,0,0-.9-2.407,9.244,9.244,0,0,0-6.484-5.178,8.641,8.641,0,0,0-1.925-.2c-4.925-.008-9.851.007-14.776.013-.084,0-.168-.016-.273-.026a1.068,1.068,0,0,1,.235-.991,5.5,5.5,0,0,1,4.1-2.8,11.036,11.036,0,0,1,1.309-.138q24.257-.011,48.513,0a6.1,6.1,0,0,1,3.661,1.055,5.419,5.419,0,0,1,2.369,3.818,14.229,14.229,0,0,1,.144,1.779c.015,2.679.007,5.358.007,8.037Z" transform="translate(-357.224 -302.299)" fill="#ec1c24"/>
  <path id="Path_1700" data-name="Path 1700" d="M322.232,514.633l.957-1.014v1.061C322.9,514.875,322.556,514.681,322.232,514.633Z" transform="translate(-315.6 -472.304)" fill="#c5c5bf"/>
  <path id="Path_1701" data-name="Path 1701" d="M754.081,513.811l1.113,1.052h-1.068A2.233,2.233,0,0,1,754.081,513.811Z" transform="translate(-670.494 -472.461)" fill="#c4c4bf"/>
  <path id="Path_1702" data-name="Path 1702" d="M453.787,578.124c-3.917,0-7.835-.021-11.752.01A6.574,6.574,0,0,1,438,576.752a7.551,7.551,0,0,1-2.421-2.962,6.152,6.152,0,0,1-.635-2.713,9.031,9.031,0,0,1,.2-2.747,8.06,8.06,0,0,1,1.468-2.676,7.971,7.971,0,0,1,2.646-2.1,5.906,5.906,0,0,1,2.591-.624q11.885.016,23.771,0a6.624,6.624,0,0,1,4.038,1.382,7.545,7.545,0,0,1,2.421,2.962,6.153,6.153,0,0,1,.636,2.713,8.989,8.989,0,0,1-.2,2.747,8.346,8.346,0,0,1-1.526,2.745,7.933,7.933,0,0,1-2.663,2.073,5.549,5.549,0,0,1-2.426.579c-4.036-.013-8.072-.006-12.108-.006Zm-.049-3.769h11.484a3.631,3.631,0,0,0,3.234-1.855,3.788,3.788,0,0,0-2.152-5.611,6.145,6.145,0,0,0-1.48-.175q-10.995-.016-21.99-.007c-.237,0-.476-.008-.712.011a3.814,3.814,0,0,0-3.342,4.8,3.956,3.956,0,0,0,3.741,2.85C446.259,574.322,450,574.356,453.737,574.355Z" transform="translate(-408.227 -512.703)" fill="#030303"/>
  <path id="Path_1703" data-name="Path 1703" d="M470.909,591.479c-3.739,0-7.479-.033-11.217.015a3.956,3.956,0,0,1-3.741-2.85,3.814,3.814,0,0,1,3.342-4.8c.236-.02.475-.011.712-.011q10.995,0,21.99.007a6.142,6.142,0,0,1,1.48.175,3.788,3.788,0,0,1,2.152,5.611,3.631,3.631,0,0,1-3.234,1.855Z" transform="translate(-425.399 -529.827)" fill="#ebedef"/>
</svg>
