<svg width="42" height="42" viewBox="0 0 42 42" fill="none" xmlns="http://www.w3.org/2000/svg">
<path d="M28.4998 16.5002C28.4984 14.844 27.1558 13.5018 25.5001 13.5H16.5V19.4999H25.5001C27.1558 19.4985 28.4984 18.1559 28.4998 16.5002Z" fill="white"/>
<path d="M16.5 28.5H25.5001C27.1567 28.5 28.4998 27.157 28.4998 25.5003C28.4998 23.8432 27.1567 22.5001 25.5001 22.5001H16.5V28.5Z" fill="white"/>
<path d="M20.9999 0.00012207C9.40201 0.00012207 0 9.40213 0 21C0 32.5979 9.40201 41.9999 20.9999 41.9999C32.5978 41.9999 41.9998 32.5979 41.9998 21C41.9865 9.40762 32.5923 0.0133972 20.9999 0.00012207ZM31.5001 25.4998C31.496 28.8122 28.8121 31.4961 25.5002 31.4998V32.9998C25.5002 33.8284 24.8282 34.4999 24.0001 34.4999C23.1715 34.4999 22.5 33.8284 22.5 32.9998V31.4998H19.5003V32.9998C19.5003 33.8284 18.8283 34.4999 18.0002 34.4999C17.1716 34.4999 16.5001 33.8284 16.5001 32.9998V31.4998H12.0003C11.1717 31.4998 10.5002 30.8282 10.5002 30.0001C10.5002 29.1716 11.1717 28.5 12.0003 28.5H13.4999V13.5H12.0003C11.1717 13.5 10.5002 12.8285 10.5002 11.9999C10.5002 11.1714 11.1717 10.4998 12.0003 10.4998H16.5001V9.00021C16.5001 8.17166 17.1716 7.50012 18.0002 7.50012C18.8287 7.50012 19.5003 8.17166 19.5003 9.00021V10.4998H22.5V9.00021C22.5 8.17166 23.1715 7.50012 24.0001 7.50012C24.8286 7.50012 25.5002 8.17166 25.5002 9.00021V10.4998C28.7997 10.4861 31.4859 13.1494 31.5001 16.4489C31.5074 18.1962 30.7498 19.8593 29.4264 21C30.7375 22.128 31.4941 23.77 31.5001 25.4998Z" fill="white"/>
</svg>
