<svg width="42" height="42" viewBox="0 0 42 42" fill="none" xmlns="http://www.w3.org/2000/svg">
<path d="M20.9999 0.00012207C9.40201 0.00012207 0 9.40213 0 21C0 32.5979 9.40201 41.9999 20.9999 41.9999C32.5978 41.9999 41.9998 32.5979 41.9998 21C41.987 9.40762 32.5923 0.0129395 20.9999 0.00012207ZM12.328 19.4999H18.3279C19.1565 19.4999 19.828 20.1715 19.828 21C19.828 21.8286 19.1565 22.5001 18.3279 22.5001H12.328C11.4995 22.5001 10.8279 21.8286 10.8279 21C10.8279 20.1715 11.4999 19.4999 12.328 19.4999ZM31.084 17.3658L29.2799 26.392C28.8551 28.4872 27.0154 29.9951 24.8776 30.0001H12.328C11.4995 30.0001 10.8279 29.3286 10.8279 28.5C10.8279 27.6715 11.4999 26.9999 12.328 26.9999H24.8776C25.5867 26.9981 26.1969 26.4982 26.3379 25.8033L28.1424 16.7772C28.3026 15.9715 27.7798 15.1887 26.9746 15.0285C26.879 15.0097 26.7819 15.0001 26.6849 15.0001H15.3282C14.4997 15.0001 13.8281 14.3286 13.8281 13.5C13.8281 12.6715 14.4997 11.9999 15.3282 11.9999H26.6849C29.1632 12.0009 31.1714 14.01 31.171 16.4883C31.171 16.7827 31.1417 17.0765 31.084 17.3658Z" fill="white"/>
</svg>
