<svg width="42" height="42" viewBox="0 0 42 42" fill="none" xmlns="http://www.w3.org/2000/svg">
<path d="M21 0.00012207C9.4021 0.00012207 9.15527e-05 9.40213 9.15527e-05 21C9.15527e-05 32.5979 9.4021 41.9999 21 41.9999C32.5979 41.9999 41.9999 32.5979 41.9999 21C41.9871 9.40762 32.5924 0.0129395 21 0.00012207ZM26.9999 30.0001H22.5001V34.4999C22.5001 35.3285 21.8286 36 21 36C20.1714 36 19.4999 35.3285 19.4999 34.4999V30.0001H15.0001C14.1715 30.0006 13.4995 29.3295 13.4991 28.5009C13.4991 28.1599 13.6149 27.8289 13.8282 27.5625L23.8784 15.0001H15.0001C14.1715 15.0001 13.5 14.3286 13.5 13.5C13.5 12.6715 14.1715 11.9999 15.0001 11.9999H19.4999V7.50012C19.4999 6.67157 20.1714 6.00003 21 6.00003C21.8286 6.00003 22.5001 6.67203 22.5001 7.50012V11.9999H26.9999C27.8294 12.0013 28.5005 12.6747 28.4995 13.5037C28.4991 13.8429 28.3833 14.1725 28.1718 14.4375L18.1216 26.9999H26.9999C27.8285 26.9999 28.5 27.6719 28.5 28.5C28.5 29.3286 27.8285 30.0001 26.9999 30.0001Z" fill="#5B5D81"/>
</svg>
