<svg width="42" height="42" viewBox="0 0 42 42" fill="none" xmlns="http://www.w3.org/2000/svg">
<path d="M21.001 0C9.40302 0 0.000976562 9.40205 0.000976562 21C0.000976562 32.5979 9.40302 42 21.001 42C32.5989 42 42.001 32.5979 42.001 21C41.9877 9.40754 32.5934 0.0132752 21.001 0V0ZM28.501 31.5002H16.5011C15.6726 31.5002 15.001 30.8287 15.001 30.0001C15.001 29.9292 15.0061 29.8582 15.0161 29.7877L16.145 21.8844L13.8649 22.4548C13.7458 22.485 13.6236 22.5001 13.5009 22.5001C12.6724 22.4992 12.0018 21.8272 12.0022 20.9986C12.0031 20.3111 12.471 19.7123 13.1379 19.5448L16.6028 18.6787L18.0159 8.78727C18.1331 7.96695 18.893 7.39749 19.7133 7.51468C20.5336 7.63187 21.1031 8.39176 20.9859 9.21208L19.7453 17.8931L25.1373 16.545C25.9398 16.3404 26.756 16.8252 26.9602 17.6276C27.1648 18.4301 26.68 19.2463 25.8776 19.4509C25.873 19.4518 25.8684 19.4532 25.8638 19.4541L19.2866 21.0984L18.2297 28.5H28.501C29.3296 28.5 30.0011 29.1716 30.0011 30.0001C30.0011 30.8282 29.3296 31.5002 28.501 31.5002Z" fill="#374C98"/>
</svg>
