<svg width="137" height="137" viewBox="0 0 137 137" fill="none" xmlns="http://www.w3.org/2000/svg">
<path d="M91.3333 54.2298C91.3293 49.5027 87.4972 45.6719 82.7714 45.6666H57.0833V62.7916H82.7714C87.4972 62.7877 91.3293 58.9556 91.3333 54.2298Z" fill="#FFAB2D"/>
<path d="M57.0833 91.3333H82.7714C87.4998 91.3333 91.3333 87.4999 91.3333 82.7715C91.3333 78.0417 87.4998 74.2083 82.7714 74.2083H57.0833V91.3333Z" fill="#FFAB2D"/>
<path d="M68.5 0C30.6686 0 0 30.6686 0 68.5C0 106.331 30.6686 137 68.5 137C106.331 137 137 106.331 137 68.5C136.957 30.6865 106.313 0.0433024 68.5 0V0ZM102.751 83.178C102.737 93.9827 93.9827 102.737 83.1795 102.749V107.642C83.1795 110.345 80.9875 112.536 78.2864 112.536C75.5837 112.536 73.3932 110.345 73.3932 107.642V102.749H63.6083V107.642C63.6083 110.345 61.4163 112.536 58.7151 112.536C56.0125 112.536 53.822 110.345 53.822 107.642V102.749H39.1439C36.4413 102.749 34.2507 100.559 34.2507 97.8576C34.2507 95.1549 36.4413 92.9644 39.1439 92.9644H44.0356V44.0356H39.1439C36.4413 44.0356 34.2507 41.8451 34.2507 39.1424C34.2507 36.4398 36.4413 34.2493 39.1439 34.2493H53.822V29.3576C53.822 26.6549 56.0125 24.4644 58.7151 24.4644C61.4178 24.4644 63.6083 26.6549 63.6083 29.3576V34.2493H73.3932V29.3576C73.3932 26.6549 75.5837 24.4644 78.2864 24.4644C80.989 24.4644 83.1795 26.6549 83.1795 29.3576V34.2493C93.9424 34.2045 102.704 42.8918 102.751 53.6547C102.775 59.3542 100.303 64.779 95.9866 68.5C100.263 72.1792 102.731 77.5353 102.751 83.178V83.178Z" fill="#FFAB2D"/>
</svg>
