<svg width="137" height="137" viewBox="0 0 137 137" fill="none" xmlns="http://www.w3.org/2000/svg">
<path d="M68.5 0C30.6686 0 0 30.6686 0 68.5C0 106.331 30.6686 137 68.5 137C106.331 137 137 106.331 137 68.5C136.957 30.6865 106.313 0.0433024 68.5 0V0ZM92.9644 102.751H53.822C51.1193 102.751 48.9288 100.56 48.9288 97.8576C48.9288 97.6261 48.9452 97.3947 48.9781 97.1647L52.6603 71.3848L45.2227 73.2453C44.8345 73.3439 44.4358 73.3932 44.0356 73.3932C41.3329 73.3902 39.1454 71.1982 39.1469 68.4955C39.1499 66.2528 40.6759 64.2997 42.8515 63.7532L54.1534 60.928L58.7629 28.6632C59.1452 25.9874 61.6239 24.1299 64.2997 24.5122C66.9755 24.8944 68.833 27.3731 68.4507 30.0489L64.4042 58.3657L81.9924 53.9683C84.61 53.3008 87.2724 54.8821 87.9383 57.4997C88.6058 60.1172 87.0245 62.7796 84.4069 63.4471C84.392 63.45 84.3771 63.4545 84.3621 63.4575L62.908 68.821L59.4602 92.9644H92.9644C95.6671 92.9644 97.8576 95.1549 97.8576 97.8576C97.8576 100.559 95.6671 102.751 92.9644 102.751Z" fill="#374C98"/>
</svg>
