<svg width="24" height="24" viewBox="0 0 24 24" fill="none" xmlns="http://www.w3.org/2000/svg">
<path d="M15.999 9.50011C15.9983 8.67201 15.327 8.00092 14.4991 8H9.99902V11H14.4991C15.327 10.9993 15.9983 10.328 15.999 9.50011Z" fill="#FFAB2D"/>
<path d="M9.99902 16H14.4991C15.3275 16 15.999 15.3285 15.999 14.5001C15.999 13.6715 15.3275 13 14.4991 13H9.99902V16Z" fill="#FFAB2D"/>
<path d="M11.999 0C5.37162 0 -0.000976562 5.3726 -0.000976562 12C-0.000976562 18.6274 5.37162 24 11.999 24C18.6264 24 23.999 18.6274 23.999 12C23.9914 5.37574 18.6233 0.00758581 11.999 0ZM17.9992 14.5713C17.9968 16.4641 16.4632 17.9978 14.5706 17.9999V18.8571C14.5706 19.3305 14.1866 19.7143 13.7134 19.7143C13.24 19.7143 12.8562 19.3305 12.8562 18.8571V17.9999H11.1421V18.8571C11.1421 19.3305 10.7581 19.7143 10.2849 19.7143C9.81143 19.7143 9.42769 19.3305 9.42769 18.8571V17.9999H6.85635C6.38289 17.9999 5.99915 17.6161 5.99915 17.1429C5.99915 16.6695 6.38289 16.2857 6.85635 16.2857H7.71329V7.71427H6.85635C6.38289 7.71427 5.99915 7.33053 5.99915 6.85707C5.99915 6.38361 6.38289 5.99987 6.85635 5.99987H9.42769V5.14293C9.42769 4.66947 9.81143 4.28573 10.2849 4.28573C10.7583 4.28573 11.1421 4.66947 11.1421 5.14293V5.99987H12.8562V5.14293C12.8562 4.66947 13.24 4.28573 13.7134 4.28573C14.1869 4.28573 14.5706 4.66947 14.5706 5.14293V5.99987C16.4561 5.99202 17.991 7.5139 17.9992 9.39937C18.0033 10.3978 17.5704 11.3481 16.8142 12C17.5634 12.6445 17.9958 13.5828 17.9992 14.5713Z" fill="#FFAB2D"/>
</svg>
