<svg width="24" height="24" viewBox="0 0 24 24" fill="none" xmlns="http://www.w3.org/2000/svg">
<path d="M12.3801 13.8734C12.136 13.9546 11.864 13.9546 11.6199 13.8734L9 13L12 18L15 13L12.3801 13.8734Z" fill="#00ADA3"/>
<path d="M12 12L15 10.8001L12 6L9 10.8001L12 12Z" fill="#00ADA3"/>
<path d="M12 0C5.3726 0 0 5.3726 0 12C0 18.6274 5.3726 24 12 24C18.6274 24 24 18.6274 24 12C23.9927 5.37574 18.6243 0.00732425 12 0ZM17.0524 11.5263L12.7667 20.0977C12.5551 20.5212 12.04 20.6928 11.6168 20.4812C11.4507 20.3983 11.3162 20.2638 11.2333 20.0977L6.94757 11.5263C6.81443 11.2589 6.8296 10.9416 6.9876 10.6882L11.2733 3.83111C11.5582 3.42984 12.114 3.33515 12.5153 3.62001C12.5972 3.67808 12.6686 3.74923 12.7267 3.83111L17.0121 10.6882C17.1704 10.9416 17.1856 11.2589 17.0524 11.5263Z" fill="#00ADA3"/>
</svg>
