<svg width="24" height="24" viewBox="0 0 24 24" fill="none" xmlns="http://www.w3.org/2000/svg">
<path d="M11.9995 0C5.37211 0 -0.000488281 5.3726 -0.000488281 12C-0.000488281 18.6274 5.37211 24 11.9995 24C18.6269 24 23.9995 18.6274 23.9995 12C23.9919 5.37574 18.6238 0.00758581 11.9995 0ZM16.2852 18.0001H9.42818C8.95472 18.0001 8.57098 17.6164 8.57098 17.1429C8.57098 17.1024 8.57385 17.0618 8.57961 17.0216L9.22467 12.5054L7.92173 12.8313C7.85372 12.8486 7.78388 12.8572 7.71378 12.8572C7.24032 12.8567 6.8571 12.4727 6.85736 11.9992C6.85789 11.6063 7.12522 11.2642 7.50635 11.1684L9.48625 10.6735L10.2937 5.0213C10.3607 4.55254 10.7949 4.22714 11.2637 4.2941C11.7324 4.36107 12.0578 4.79529 11.9909 5.26404L11.282 10.2247L14.3632 9.4543C14.8217 9.33737 15.2881 9.61439 15.4048 10.0729C15.5217 10.5315 15.2447 10.9979 14.7861 11.1148C14.7835 11.1153 14.7809 11.1161 14.7783 11.1166L11.0199 12.0562L10.4159 16.2857H16.2852C16.7587 16.2857 17.1424 16.6695 17.1424 17.1429C17.1424 17.6161 16.7587 18.0001 16.2852 18.0001Z" fill="#374C98"/>
</svg>
