<svg width="24" height="24" viewBox="0 0 24 24" fill="none" xmlns="http://www.w3.org/2000/svg">
<path d="M12.2161 0.00189099C5.59822 -0.114662 0.118718 5.17136 0.00213245 11.7875C-0.0369579 13.869 0.462987 15.8373 1.36961 17.5623H5.14217V5.75207C5.14217 5.03013 6.12354 4.80045 6.44244 5.44835L12.0001 16.6998L17.5578 5.44903C17.8767 4.80045 18.8581 5.03013 18.8581 5.75207V17.5623H22.619C23.4625 15.9594 23.9645 14.1494 23.9981 12.2194C24.1147 5.60329 18.8341 0.1253 12.2161 0.00189099Z" fill="#FF782C"/>
<path d="M17.4865 18.2479V8.6892L12.6146 18.5516C12.3842 19.0199 11.6154 19.0199 11.385 18.5516L6.51376 8.6892V18.2479C6.51376 18.6264 6.20721 18.9335 5.82796 18.9335H2.22685C4.36036 21.9303 7.82911 23.9241 11.7841 23.9981C15.8968 24.0708 19.5672 22.0551 21.7871 18.9335H18.1723C17.793 18.9335 17.4865 18.6264 17.4865 18.2479Z" fill="#FF782C"/>
</svg>
